<svg width="17" height="17" viewBox="0 0 17 17" fill="none" xmlns="http://www.w3.org/2000/svg">
<g id="Social Media Icon">
<path id="Vector" d="M8.75496 6.73784C7.64381 6.73784 6.7437 7.63828 6.7437 8.74909C6.7437 9.86017 7.64415 10.7603 8.75496 10.7603C9.86605 10.7603 10.7662 9.8599 10.7662 8.74909C10.7662 7.63801 9.86578 6.73784 8.75496 6.73784ZM8.75496 5.39701C10.6056 5.39701 12.107 6.8968 12.107 8.74909C12.107 10.5998 10.6073 12.1012 8.75496 12.1012C6.90428 12.1012 5.40287 10.6014 5.40287 8.74909C5.40287 6.89843 6.90266 5.39701 8.75496 5.39701ZM13.1127 5.22883C13.1127 5.69149 12.7367 6.06687 12.2747 6.06687C11.812 6.06687 11.4366 5.69092 11.4366 5.22883C11.4366 4.76675 11.8125 4.39138 12.2747 4.39138C12.7361 4.3908 13.1127 4.76675 13.1127 5.22883ZM8.75496 3.38576C7.09602 3.38576 6.82562 3.39015 6.05403 3.42451C5.52835 3.44918 5.17596 3.51989 4.84855 3.647C4.55759 3.75984 4.3477 3.89459 4.12407 4.11822C3.89958 4.34271 3.76508 4.55203 3.65269 4.84313C3.52528 5.17129 3.4546 5.52312 3.43037 6.04808C3.39567 6.78826 3.39161 7.04694 3.39161 8.74909C3.39161 10.408 3.39601 10.6784 3.43036 11.4499C3.45505 11.9754 3.52585 12.3283 3.65265 12.6549C3.76579 12.9463 3.90081 13.1567 4.12336 13.3793C4.34874 13.6043 4.55868 13.7393 4.84702 13.8506C5.17842 13.9787 5.53058 14.0495 6.05393 14.0737C6.79411 14.1083 7.0528 14.1124 8.75496 14.1124C10.4139 14.1124 10.6843 14.108 11.4558 14.0737C11.9801 14.0491 12.3333 13.9781 12.6608 13.8514C12.9514 13.7385 13.1624 13.603 13.3851 13.3807C13.6105 13.1549 13.7452 12.9455 13.8566 12.6565C13.9844 12.3263 14.0553 11.9737 14.0795 11.4501C14.1142 10.7099 14.1183 10.4512 14.1183 8.74909C14.1183 7.09016 14.1139 6.81977 14.0795 6.04823C14.0549 5.52376 13.9839 5.17006 13.857 4.84269C13.7445 4.55254 13.6093 4.342 13.3858 4.11822C13.1609 3.89336 12.9522 3.75913 12.6609 3.64683C12.333 3.51953 11.9806 3.44875 11.4559 3.42451C10.7158 3.38981 10.4571 3.38576 8.75496 3.38576ZM8.75496 2.04492C10.5762 2.04492 10.8036 2.05163 11.5188 2.08515C12.2321 2.11811 12.7188 2.23096 13.1462 2.39689C13.5881 2.56729 13.9613 2.79746 14.3339 3.1701C14.706 3.54275 14.9362 3.91706 15.1072 4.35786C15.2725 4.78469 15.3854 5.27186 15.4189 5.9853C15.4508 6.70041 15.4591 6.92779 15.4591 8.74909C15.4591 10.5704 15.4524 10.7978 15.4189 11.5129C15.3859 12.2263 15.2725 12.7129 15.1072 13.1403C14.9367 13.5823 14.706 13.9554 14.3339 14.3281C13.9613 14.7002 13.5864 14.9303 13.1462 15.1013C12.7188 15.2667 12.2321 15.3795 11.5188 15.413C10.8036 15.4449 10.5762 15.4533 8.75496 15.4533C6.93365 15.4533 6.70626 15.4466 5.99116 15.413C5.27772 15.3801 4.79167 15.2667 4.36372 15.1013C3.92236 14.9309 3.5486 14.7002 3.17596 14.3281C2.80332 13.9554 2.57371 13.5806 2.40275 13.1403C2.23682 12.7129 2.12453 12.2263 2.09101 11.5129C2.05916 10.7978 2.05078 10.5704 2.05078 8.74909C2.05078 6.92779 2.05749 6.70041 2.09101 5.9853C2.12396 5.2713 2.23682 4.78525 2.40275 4.35786C2.57314 3.9165 2.80332 3.54275 3.17596 3.1701C3.5486 2.79746 3.92292 2.56785 4.36372 2.39689C4.79111 2.23096 5.27716 2.11867 5.99116 2.08515C6.70626 2.0533 6.93365 2.04492 8.75496 2.04492Z" fill="#222222"/>
</g>
</svg>
