<svg width="22" height="22" viewBox="0 0 22 22" fill="none" xmlns="http://www.w3.org/2000/svg">
<g id="LinkedIn Icon">
<g id="linked_in">
<path d="M8.98453 6.52019C8.98453 7.14672 8.44147 7.65463 7.77156 7.65463C7.10166 7.65463 6.55859 7.14672 6.55859 6.52019C6.55859 5.89365 7.10166 5.38574 7.77156 5.38574C8.44147 5.38574 8.98453 5.89365 8.98453 6.52019Z" fill="#222222"/>
<path d="M6.72447 8.4885H8.79792V14.7716H6.72447V8.4885Z" fill="#222222"/>
<path d="M12.1362 8.4885H10.0627V14.7716H12.1362C12.1362 14.7716 12.1362 12.7936 12.1362 11.5568C12.1362 10.8145 12.3896 10.069 13.401 10.069C14.5439 10.069 14.5371 11.0404 14.5317 11.793C14.5248 12.7767 14.5414 13.7806 14.5414 14.7716H16.6148V11.4555C16.5973 9.3381 16.0455 8.36245 14.2304 8.36245C13.1524 8.36245 12.4842 8.85184 12.1362 9.2946V8.4885Z" fill="#222222"/>
</g>
</g>
</svg>
