<svg width="18" height="19" viewBox="0 0 18 19" fill="none" xmlns="http://www.w3.org/2000/svg">
<g id="grommet-icons:user-expert" clip-path="url(#clip0_11594_893)">
<path id="Vector" d="M6 9.25C6.99456 9.25 7.94839 8.85491 8.65165 8.15165C9.35491 7.44839 9.75 6.49456 9.75 5.5C9.75 4.50544 9.35491 3.55161 8.65165 2.84835C7.94839 2.14509 6.99456 1.75 6 1.75C5.00544 1.75 4.05161 2.14509 3.34835 2.84835C2.64509 3.55161 2.25 4.50544 2.25 5.5C2.25 6.49456 2.64509 7.44839 3.34835 8.15165C4.05161 8.85491 5.00544 9.25 6 9.25ZM6 9.25C7.50975 9.25 8.829 9.82 9.76725 10.7673C10.3235 11.3312 10.7397 12.0179 10.9823 12.772M6 9.25C3 9.25 0.75 11.5 0.75 14.5V18.25H8.25M9 15.118L12.1425 17.5L17.25 10.75" stroke="#FFB6C1" stroke-width="1.5"/>
</g>
<defs>
<clipPath id="clip0_11594_893">
<rect width="18" height="18" fill="white" transform="translate(0 0.5)"/>
</clipPath>
</defs>
</svg>
