<svg width="17" height="17" viewBox="0 0 17 17" fill="none" xmlns="http://www.w3.org/2000/svg">
<g id="Social Media Icon">
<path id="Vector" d="M12.9493 9.08943H3.56349V13.7823H12.9493V9.08943ZM12.9493 7.7486C12.9493 5.15677 10.8482 3.05568 8.25641 3.05568C5.66458 3.05568 3.56349 5.15677 3.56349 7.7486H12.9493ZM4.49021 3.03429C5.52244 2.20859 6.83177 1.71484 8.25641 1.71484C9.68104 1.71484 10.9904 2.20859 12.0226 3.03429L12.997 2.05992L13.9451 3.00803L12.9707 3.9824C13.7964 5.01463 14.2902 6.32395 14.2902 7.7486V14.4528C14.2902 14.823 13.99 15.1232 13.6197 15.1232H2.89307C2.52282 15.1232 2.22266 14.823 2.22266 14.4528V7.7486C2.22266 6.32395 2.7164 5.01463 3.5421 3.9824L2.56773 3.00803L3.51584 2.05992L4.49021 3.03429ZM6.24516 6.40776C5.8749 6.40776 5.57474 6.1076 5.57474 5.73735C5.57474 5.36709 5.8749 5.06693 6.24516 5.06693C6.61542 5.06693 6.91557 5.36709 6.91557 5.73735C6.91557 6.1076 6.61542 6.40776 6.24516 6.40776ZM10.2677 6.40776C9.89739 6.40776 9.59724 6.1076 9.59724 5.73735C9.59724 5.36709 9.89739 5.06693 10.2677 5.06693C10.6379 5.06693 10.9381 5.36709 10.9381 5.73735C10.9381 6.1076 10.6379 6.40776 10.2677 6.40776Z" fill="#222222"/>
</g>
</svg>
