<svg width="18" height="19" viewBox="0 0 18 19" fill="none" xmlns="http://www.w3.org/2000/svg">
<g id="Stat Icon" clip-path="url(#clip0_11594_882)">
<g id="Stat Icon_2">
<path id="Vector" d="M6.00839 9.87291C5.53242 9.36026 6.24219 8.6512 6.75431 9.12699L8.12185 10.4945L11.2299 7.38651C11.4359 7.18053 11.7698 7.18053 11.9758 7.38651C12.1818 7.5925 12.1818 7.92645 11.9758 8.13243L8.49479 11.6134C8.28881 11.8194 7.95486 11.8194 7.74887 11.6134L6.00839 9.87291ZM6.55652 4.14737C6.84781 4.14737 7.08397 3.91121 7.08397 3.61992C7.05812 2.92102 6.05481 2.92123 6.02907 3.61992C6.02907 3.91121 6.26523 4.14737 6.55652 4.14737ZM4.49169 5.52697C4.78299 5.52697 5.01914 5.29081 5.01914 4.99952C4.9933 4.30061 3.98998 4.30082 3.96424 4.99952C3.96424 5.29081 4.2004 5.52697 4.49169 5.52697ZM17.9939 9.49993C18.0076 17.4738 8.25491 21.5133 2.62681 15.8651C-0.86491 12.5144 -0.865508 6.48538 2.62695 3.1347C8.25551 -2.51334 18.0082 1.52644 17.9939 9.49993ZM16.939 9.49993C16.939 5.11799 13.3741 1.55302 8.99211 1.55302C-1.53607 1.95255 -1.53319 17.0489 8.99221 17.4468C13.3741 17.4468 16.939 13.8819 16.939 9.49993ZM8.99211 2.60792C8.29232 2.63377 8.29503 3.63842 8.99211 3.66282C12.2107 3.66282 14.8292 6.28133 14.8292 9.49993C14.5358 17.2329 3.44738 17.2311 3.155 9.49986C3.155 9.20864 2.91884 8.97248 2.62755 8.97248C2.33625 8.97248 2.1001 9.20864 2.1001 9.49993C2.1001 13.3002 5.19183 16.3919 8.99211 16.3919C18.1226 16.0455 18.1204 2.95312 8.99211 2.60792ZM3.11203 7.59176C3.40332 7.59176 3.63948 7.3556 3.63948 7.06431C3.61363 6.3654 2.61032 6.36562 2.58458 7.06431C2.58458 7.3556 2.82073 7.59176 3.11203 7.59176Z" fill="#FFB6C1"/>
</g>
</g>
<defs>
<clipPath id="clip0_11594_882">
<rect width="18" height="18" fill="white" transform="translate(0 0.5)"/>
</clipPath>
</defs>
</svg>
